:FULLY-SPECIFIED
:FORCE-ALL-JOINTS-BE-3DOF
:DEGREES
917
root 2.98375 16.094 32.0333 1.01449 15.0891 361.665
lfemur -17.4912 18.8595 -11.4747
ltibia 37.1195 0 0
lfoot -19.3886 -4.29168 0
ltoes -0.888754 0 0
rfemur -28.0054 -12.5958 -3.06915
rtibia 70.5368 0 0
rfoot -1.42332 -15.601 0
rtoes 16.5716 0 0
lowerback 2.19164 -1.72854 -2.44886
upperback -0.0813693 -2.43711 -3.48205
thorax -1.28684 -1.21254 -2.11858
lowerneck -6.95188 -4.73916 -0.314339
upperneck 3.72345 -6.56247 4.54299
head 2.65222 -3.13026 1.19819
lclavicle 5.96693e-15 2.07122e-14 0
lhumerus -53.5344 -39.5217 110.608
lradius 59.4861 0 0
lwrist 16.3328 0 0
lhand 32.9571 18.9061 0
lfingers 7.12502 0 0
lthumb 56.2693 35.5173 0
rclavicle 5.96693e-15 2.07122e-14 0
rhumerus -31.9946 -0.273601 -69.8881
rradius 91.1349 0 0
rwrist -10.3339 0 0
rhand -0.726821 -17.2921 0
rfingers 7.12502 0 0
rthumb 24.7689 -764.04 0
918
root 2.90417 16.0597 32.0671 1.2814 14.2667 361.819
lfemur -16.456 18.029 -10.8168
ltibia 35.5811 0 0
lfoot -19.8626 -4.75894 0
ltoes -2.26061 0 0
rfemur -28.1356 -12.6659 -3.30701
rtibia 69.5087 0 0
rfoot -2.2355 -14.7595 0
rtoes 13.8338 0 0
lowerback 1.97395 -1.66806 -2.32609
upperback -0.150677 -2.35081 -3.64315
thorax -1.24079 -1.17149 -2.36238
lowerneck -6.94515 -4.50861 -0.128958
upperneck 3.62504 -6.2637 4.48777
head 2.60603 -2.9829 1.1622
lclavicle 5.09685e-15 2.2095e-14 0
lhumerus -53.7944 -39.7269 110.699
lradius 59.3071 0 0
lwrist 16.7499 0 0
lhand 33.3133 19.1661 0
lfingers 7.12502 0 0
lthumb 56.5776 35.4832 0
rclavicle 5.09685e-15 2.2095e-14 0
rhumerus -30.3668 -1.85173 -66.9505
rradius 88.3261 0 0
rwrist -10.5099 0 0
rhand -2.48644 -18.8048 0
rfingers 7.12502 0 0
rthumb 23.0783 -765.685 0
919
root 2.8223 16.0244 32.1019 1.55594 13.4208 361.978
lfemur -15.3912 17.1747 -10.14
ltibia 33.9987 0 0
lfoot -20.3503 -5.23958 0
ltoes -3.67174 0 0
rfemur -28.2695 -12.7379 -3.55168
rtibia 68.451 0 0
rfoot -3.07094 -13.8939 0
rtoes 11.0175 0 0
lowerback 1.75004 -1.60584 -2.1998
upperback -0.22197 -2.26204 -3.80888
thorax -1.19343 -1.12926 -2.61316
lowerneck -6.93823 -4.27146 0.0617305
upperneck 3.52381 -5.95637 4.43096
head 2.55851 -2.83133 1.12518
lclavicle 4.20186e-15 2.35174e-14 0
lhumerus -54.0618 -39.9381 110.792
lradius 59.123 0 0
lwrist 17.1789 0 0
lhand 33.6797 19.4335 0
lfingers 7.12502 0 0
lthumb 56.8947 35.4482 0
rclavicle 4.20186e-15 2.35174e-14 0
rhumerus -28.6923 -3.47505 -63.9287
rradius 85.4368 0 0
rwrist -10.691 0 0
rhand -4.29643 -20.3607 0
rfingers 7.12502 0 0
rthumb 21.3392 -767.377 0
920
root 2.73858 15.9883 32.1375 1.83674 12.5556 362.14
lfemur -14.3021 16.301 -9.4478
ltibia 32.3803 0 0
lfoot -20.849 -5.73117 0
ltoes -5.11501 0 0
rfemur -28.4064 -12.8117 -3.80192
rtibia 67.3693 0 0
rfoot -3.9254 -13.0086 0
rtoes 8.13718 0 0
lowerback 1.52102 -1.5422 -2.07064
upperback -0.294886 -2.17125 -3.97837
thorax -1.145 -1.08607 -2.86965
lowerneck -6.93114 -4.0289 0.256762
upperneck 3.42027 -5.64205 4.37287
head 2.50992 -2.67631 1.08732
lclavicle 3.28649e-15 2.49723e-14 0
lhumerus -54.3354 -40.154 110.888
lradius 58.9347 0 0
lwrist 17.6177 0 0
lhand 34.0544 19.7071 0
lfingers 7.12502 0 0
lthumb 57.219 35.4124 0
rclavicle 3.28649e-15 2.49723e-14 0
rhumerus -26.9798 -5.13535 -60.8381
rradius 82.4817 0 0
rwrist -10.8762 0 0
rhand -6.14765 -21.9521 0
rfingers 7.12502 0 0
rthumb 19.5606 -769.107 0
921
root 2.6534 15.9516 32.1736 2.1224 11.6754 362.305
lfemur -13.1941 15.4122 -8.74363
ltibia 30.7338 0 0
lfoot -21.3564 -6.23127 0
ltoes -6.58328 0 0
rfemur -28.5457 -12.8867 -4.05649
rtibia 66.2688 0 0
rfoot -4.79466 -12.108 0
rtoes 5.20693 0 0
lowerback 1.28804 -1.47746 -1.93925
upperback -0.369066 -2.07889 -4.1508
thorax -1.09572 -1.04214 -3.13058
lowerneck -6.92394 -3.78215 0.455172
upperneck 3.31494 -5.32229 4.31376
head 2.46048 -2.5186 1.0488
lclavicle 2.35526e-15 2.64523e-14 0
lhumerus -54.6136 -40.3737 110.985
lradius 58.7432 0 0
lwrist 18.0641 0 0
lhand 34.4356 19.9854 0
lfingers 7.12502 0 0
lthumb 57.549 35.376 0
rclavicle 2.35526e-15 2.64523e-14 0
rhumerus -25.2375 -6.82439 -57.694
rradius 79.4755 0 0
rwrist -11.0646 0 0
rhand -8.03094 -23.5711 0
rfingers 7.12502 0 0
rthumb 17.7511 -770.867 0
922
root 2.56719 15.9145 32.2103 2.41153 10.7845 362.472
lfemur -12.0726 14.5125 -8.0309
ltibia 29.0673 0 0
lfoot -21.8699 -6.73745 0
ltoes -8.06941 0 0
rfemur -28.6867 -12.9626 -4.31416
rtibia 65.155 0 0
rfoot -5.6745 -11.1964 0
rtoes 2.24105 0 0
lowerback 1.05223 -1.41194 -1.80625
upperback -0.444147 -1.98541 -4.32533
thorax -1.04584 -0.997667 -3.39469
lowerneck -6.91665 -3.53239 0.655994
upperneck 3.20833 -4.99863 4.25394
head 2.41044 -2.35897 1.00981
lclavicle 1.4127e-15 2.79503e-14 0
lhumerus -54.8953 -40.5961 111.083
lradius 58.5493 0 0
lwrist 18.5159 0 0
lhand 34.8214 20.267 0
lfingers 7.12502 0 0
lthumb 57.883 35.3391 0
rclavicle 1.4127e-15 2.79503e-14 0
rhumerus -23.4741 -8.53398 -54.5116
rradius 76.4327 0 0
rwrist -11.2553 0 0
rhand -9.93712 -25.2097 0
rfingers 7.12502 0 0
rthumb 15.9196 -772.649 0
923
root 2.48036 15.8771 32.2472 2.70275 9.88722 362.641
lfemur -10.9431 13.6063 -7.31303
ltibia 27.3888 0 0
lfoot -22.3872 -7.24728 0
ltoes -9.56625 0 0
rfemur -28.8287 -13.039 -4.57369
rtibia 64.0331 0 0
rfoot -6.56067 -10.2783 0
rtoes -0.746207 0 0
lowerback 0.814715 -1.34594 -1.6723
upperback -0.51977 -1.89125 -4.50112
thorax -0.995607 -0.952876 -3.6607
lowerneck -6.9093 -3.28083 0.858264
upperneck 3.10095 -4.67264 4.19368
head 2.36004 -2.19819 0.970538
lclavicle 4.63356e-16 2.94591e-14 0
lhumerus -55.179 -40.82 111.182
lradius 58.354 0 0
lwrist 18.971 0 0
lhand 35.21 20.5507 0
lfingers 7.12502 0 0
lthumb 58.2194 35.302 0
rclavicle 4.63356e-16 2.94591e-14 0
rhumerus -21.6979 -10.2559 -51.3063
rradius 73.3679 0 0
rwrist -11.4473 0 0
rhand -11.857 -26.8601 0
rfingers 7.12502 0 0
rthumb 14.0749 -774.443 0
924
root 2.39332 15.8395 32.2841 2.99467 8.98777 362.809
lfemur -9.81088 12.698 -6.59344
ltibia 25.7063 0 0
lfoot -22.9057 -7.75833 0
ltoes -11.0667 0 0
rfemur -28.971 -13.1157 -4.83384
rtibia 62.9086 0 0
rfoot -7.44897 -9.35797 0
rtoes -3.74059 0 0
lowerback 0.576635 -1.27979 -1.53803
upperback -0.595572 -1.79687 -4.67732
thorax -0.945252 -0.907979 -3.92734
lowerneck -6.90194 -3.02867 1.06102
upperneck 2.99331 -4.34588 4.13329
head 2.30951 -2.03703 0.931175
lclavicle -4.88256e-16 3.09715e-14 0
lhumerus -55.4633 -41.0446 111.282
lradius 58.1583 0 0
lwrist 19.4271 0 0
lhand 35.5996 20.8351 0
lfingers 7.12502 0 0
lthumb 58.5565 35.2647 0
rclavicle -4.88256e-16 3.09715e-14 0
rhumerus -19.9175 -11.9819 -48.0933
rradius 70.2959 0 0
rwrist -11.6398 0 0
rhand -13.7816 -28.5145 0
rfingers 7.12502 0 0
rthumb 12.2259 -776.242 0
